<?xml version="1.0" standalone="no"?><!DOCTYPE svg PUBLIC "-//W3C//DTD SVG 1.1//EN" "http://www.w3.org/Graphics/SVG/1.1/DTD/svg11.dtd"><svg t="1755874541076" class="icon" viewBox="0 0 1024 1024" version="1.1" xmlns="http://www.w3.org/2000/svg" p-id="38731" xmlns:xlink="http://www.w3.org/1999/xlink" width="200" height="200"><path d="M142.836 538.379l196.832-340.923h393.665l196.832 340.923-389.864 398.066z" fill="#33DEB4" opacity=".4" p-id="38732"></path><path d="M511.299 875.691c-5.308 0-10.4-2.11-14.152-5.868L99.682 471.757a19.998 19.998 0 0 1-3.167-24.131l196.833-340.924a19.999 19.999 0 0 1 17.32-10h393.665a19.998 19.998 0 0 1 17.32 10l196.832 340.924a20.001 20.001 0 0 1-3.031 23.994L525.588 869.686a20.005 20.005 0 0 1-14.192 6.006l-0.097-0.001zM138.823 454.346l372.339 372.902 365.091-372.77-183.468-317.776H322.214L138.823 454.346z" fill="#33DEB4" p-id="38733"></path><path d="M509.665 710.371l-226.4-226.743c-3.902-3.908-3.898-10.24 0.01-14.142 3.909-3.902 10.241-3.897 14.142 0.01l212.11 212.431 207.987-212.362c3.865-3.945 10.195-4.013 14.142-0.147 3.945 3.864 4.012 10.195 0.147 14.141L509.665 710.371z" fill="#808080" p-id="38734"></path></svg>