<svg width="25" height="24" viewBox="0 0 25 24" fill="none" xmlns="http://www.w3.org/2000/svg">
<path fill-rule="evenodd" clip-rule="evenodd" d="M17.26 8.67412C15.614 8.67412 14.27 7.34012 14.27 5.69412V3.65212L19.552 8.67412H17.26ZM13.768 13.3651C13.622 13.5111 13.43 13.5841 13.239 13.5841C13.046 13.5841 12.854 13.5111 12.708 13.3641L11.644 12.2951V16.5191C11.644 16.9331 11.308 17.2691 10.894 17.2691C10.48 17.2691 10.144 16.9331 10.144 16.5191V12.2941L9.07998 13.3641C8.78798 13.6571 8.31298 13.6571 8.01898 13.3651C7.72598 13.0731 7.72498 12.5991 8.01698 12.3051L10.362 9.95012C10.498 9.81312 10.686 9.72812 10.894 9.72812C11.102 9.72812 11.29 9.81312 11.426 9.95012L13.77 12.3051C14.063 12.5991 14.061 13.0731 13.768 13.3651ZM20.955 8.85012C20.955 8.81012 20.955 8.78012 20.945 8.74012C20.915 8.56012 20.885 8.38012 20.855 8.21012C20.835 8.10012 20.785 8.01012 20.705 7.93012L15.035 2.53012C14.965 2.46012 14.865 2.41012 14.765 2.40012C14.595 2.38012 14.415 2.36012 14.235 2.34012C14.205 2.33012 14.165 2.33012 14.135 2.33012C13.555 2.28012 12.915 2.25012 12.245 2.25012C5.68498 2.25012 3.35498 4.80012 3.35498 12.0001C3.35498 19.1901 5.68498 21.7501 12.245 21.7501C18.815 21.7501 21.145 19.1901 21.145 12.0001C21.145 10.8001 21.085 9.76012 20.955 8.85012Z" fill="black"/>
</svg>
