<svg width="25" height="24" viewBox="0 0 25 24" fill="none" xmlns="http://www.w3.org/2000/svg">
<path fill-rule="evenodd" clip-rule="evenodd" d="M12.2532 8.21869C11.8442 7.44569 9.68115 3.58569 7.29015 3.58569C4.89915 3.58569 2.73515 7.44569 2.32615 8.21869C2.06815 8.70669 2.25415 9.31169 2.74215 9.57069C3.22815 9.82569 3.83515 9.64269 4.09415 9.15469C4.68415 8.04269 5.54815 6.85769 6.29015 6.17169V17.2047C6.29015 17.7577 6.73715 18.2047 7.29015 18.2047C7.84315 18.2047 8.29015 17.7577 8.29015 17.2047V6.17169C9.03215 6.85869 9.89615 8.04269 10.4852 9.15469C10.6652 9.49269 11.0122 9.68669 11.3702 9.68669C11.5282 9.68669 11.6892 9.64869 11.8372 9.57069C12.3252 9.31169 12.5112 8.70669 12.2532 8.21869Z" fill="black"/>
<path fill-rule="evenodd" clip-rule="evenodd" d="M21.758 14.4326C21.274 14.1736 20.665 14.3596 20.406 14.8466C19.818 15.9566 18.958 17.1386 18.22 17.8256V6.79559C18.22 6.24359 17.773 5.79559 17.22 5.79559C16.667 5.79559 16.22 6.24359 16.22 6.79559V17.8296C15.478 17.1436 14.614 15.9596 14.024 14.8466C13.765 14.3596 13.155 14.1726 12.672 14.4326C12.184 14.6906 11.998 15.2946 12.256 15.7836C12.665 16.5566 14.828 20.4146 17.22 20.4146C19.602 20.4146 21.765 16.5566 22.174 15.7836C22.432 15.2946 22.246 14.6906 21.758 14.4326Z" fill="black"/>
</svg>
