<svg width="25" height="24" viewBox="0 0 25 24" fill="none" xmlns="http://www.w3.org/2000/svg">
<path fill-rule="evenodd" clip-rule="evenodd" d="M16.284 14.4011C16.144 14.6361 15.895 14.7671 15.639 14.7671C15.509 14.7671 15.376 14.7331 15.256 14.6621L11.865 12.6391C11.638 12.5041 11.499 12.2581 11.499 11.9951V7.63312C11.499 7.21912 11.835 6.88312 12.249 6.88312C12.663 6.88312 12.999 7.21912 12.999 7.63312V11.5691L16.024 13.3731C16.38 13.5861 16.496 14.0461 16.284 14.4011ZM12.25 2.25012C5.051 2.25012 2.5 4.80112 2.5 12.0001C2.5 19.1981 5.051 21.7501 12.25 21.7501C19.449 21.7501 22 19.1981 22 12.0001C22 4.80112 19.449 2.25012 12.25 2.25012Z" fill="black"/>
</svg>
