<?xml version="1.0" standalone="no"?><!DOCTYPE svg PUBLIC "-//W3C//DTD SVG 1.1//EN" "http://www.w3.org/Graphics/SVG/1.1/DTD/svg11.dtd"><svg t="1752399253376" class="icon" viewBox="0 0 1024 1024" version="1.1" xmlns="http://www.w3.org/2000/svg" p-id="7749" xmlns:xlink="http://www.w3.org/1999/xlink" width="200" height="200"><path d="M628.553109 442.88q0-61.732571-30.573714-96.548571t-84.260571-34.889143q-35.986286 0-70.875429 17.408t-62.829714 48.274286-45.421714 78.262857-17.408 102.838857q0 64 30.573714 98.889143t86.016 34.889143q54.857143 0 100.571429-38.034286t69.997714-94.866286 24.283429-116.297143zM950.820538 512q0 63.414857-21.138286 112.566857t-56.32 77.165714-75.117714 42.569143-82.870857 15.725714q-3.437714 0-8.850286 0.292571t-9.435429 0.292571q-54.272 0-81.115429-30.281143-16.018286-18.870857-18.870857-47.396571-29.696 37.741714-75.117714 62.829714t-99.108571 25.161143q-92.013714 0-142.555429-54.564571t-50.541714-153.965714q0-89.746286 37.741714-165.741714t102.253714-120.32 140.580571-44.251429q49.737143 0 88.576 20.260571t60.562286 56.832l1.170286-10.825143 6.290286-32.036571q0.585143-3.437714 3.145143-6.875429t5.412571-3.437714l67.437714 0q2.852571 0 7.460571 6.290286 2.852571 2.852571 1.682286 9.142857l-68.534857 350.866286q-2.852571 13.677714-2.852571 27.428571 0 22.308571 7.168 29.696t25.453714 7.460571q16.018286-0.585143 32.548571-3.145143t41.691429-13.677714 44.032-28.598857 32.548571-51.126857 13.677714-78.262857q0-166.838857-99.401143-266.313143t-266.313143-99.401143q-74.313143 0-141.970286 29.110857t-116.589714 77.970286-77.970286 116.589714-29.110857 141.970286 29.110857 141.970286 77.970286 116.589714 116.589714 77.970286 141.970286 29.110857q130.267429 0 231.424-82.285714 6.290286-5.12 13.677714-4.534857t11.995429 6.875429l23.405714 28.013714q4.534857 6.875429 4.022857 13.677714-1.170286 7.460571-6.875429 12.580571-58.294857 47.396571-129.974857 73.142857t-147.748571 25.746286q-89.161143 0-170.276571-34.889143t-139.995429-93.696-93.696-139.995429-34.889143-170.276571 34.889143-170.276571 93.696-139.995429 139.995429-93.696 170.276571-34.889143q196.534857 0 317.732571 121.124571t121.124571 317.732571z" fill="#444444" p-id="7750"></path></svg>