<svg width="24" height="24" viewBox="0 0 24 24" fill="none" xmlns="http://www.w3.org/2000/svg">
<path d="M12 21.2501C18.937 21.2501 21.25 18.9371 21.25 12.0001" stroke="black" stroke-width="1.5" stroke-linecap="round" stroke-linejoin="round"/>
<path d="M12 2.75012C5.063 2.75012 2.75 5.06312 2.75 12.0001C2.75 17.5531 4.232 20.1431 8.382 20.9551" stroke="black" stroke-width="1.5" stroke-linecap="round" stroke-linejoin="round"/>
<path fill-rule="evenodd" clip-rule="evenodd" d="M19.5293 4.30413V4.30413C18.5363 3.42513 17.0193 3.51713 16.1403 4.51013C16.1403 4.51013 11.7713 9.44513 10.2563 11.1581C8.73926 12.8701 9.85126 15.2351 9.85126 15.2351C9.85126 15.2351 12.3553 16.0281 13.8493 14.3401C15.3443 12.6521 19.7353 7.69313 19.7353 7.69313C20.6143 6.70013 20.5213 5.18313 19.5293 4.30413Z" stroke="black" stroke-width="1.5" stroke-linecap="round" stroke-linejoin="round"/>
<path d="M15.0093 5.80115L16.8223 7.40615" stroke="black" stroke-width="1.5" stroke-linecap="round" stroke-linejoin="round"/>
</svg>
