<svg
    data-v-2756d866=""
    id="shape_QeUV4mWJtB"
    data-noselect=""
    viewBox="0 0 800 600"
    width="800"
    height="600"
    preserveAspectRatio="none"
    version="1.1"
    xmlns="http://www.w3.org/2000/svg"
    xmlns:xlink="http://www.w3.org/1999/xlink"
  >
    <defs data-v-2756d866=""></defs>
    <!---->
    <g data-v-2756d866="" mask="">
      <g
        data-v-2756d866=""
        transform="translate(0,0) rotate(0,66.71935021617239,77.17843204809787) scale(1,1)"
        filter=""
        style="opacity: 1"
      >
        <g data-v-2756d866="">
          <svg
            version="1.1"
            id="图层_1"
            xmlns="http://www.w3.org/2000/svg"
            xmlns:xlink="http://www.w3.org/1999/xlink"
            x="0px"
            y="0px"
            width="133.43870043234477"
            height="154.35686409619575"
            viewBox="0 0 203.11 234.95"
            style="enable-background: new 0 0 203.11 234.95"
            xml:space="preserve"
            class="style-removed"
            preserveAspectRatio="none"
            data-parent="shape_QeUV4mWJtB"
          >
            <g>
              <g>
                <g>
                  <path
                    d="M203.11,234.95h-29.4l-12.26-27.99c-7.4,0.93-14.77,1.4-22.09,1.4c-25.27,0-49.86-5.49-72.87-16.3
				L47.7,234.95H18.3l24.64-56.22C17.21,161.6,3.32,143.19,2.71,142.38c-4.51-6.05-3.27-14.59,2.77-19.11
				c6.04-4.5,14.59-3.27,19.1,2.78c0.12,0.14,13.51,17.68,37.88,32.8c27.11,16.82,56.47,24.14,87.46,21.84l-39.23-89.5l-29.33,66.9
				c-8.98-3.75-16.88-8.26-23.72-12.97l38.33-87.45h29.42L203.11,234.95z"
                    fill="#282828"
                    stroke-width="0"
                  ></path>
                </g>
              </g>
              <g>
                <path
                  d="M34.88,88.91c0.01-22.33,5.89-45.1,17.11-64.59c2.27-4.07,5.53-8.75,8.3-12.51c1.27-1.55,4.59-5.49,5.91-7.06
			c6.58-6.37,16.59-6.03,21.74-0.75C93.66,9.85,93,21.41,84.6,27.34c-2.65,1.45-5.32,3.06-7.97,4.87
			C57.12,45.62,42.79,66.63,34.88,88.91L34.88,88.91z"
                  fill="#282828"
                  stroke-width="0"
                ></path>
              </g>
              <g>
                <path
                  d="M57.36,58.9c15.13-16.42,34.87-29.2,56.33-35.95c4.42-1.46,9.99-2.69,14.58-3.58
			c1.98-0.29,7.09-0.93,9.13-1.2c9.15-0.23,16.29,6.79,16.51,14.17c0.24,8.19-8.06,16.25-18.26,14.93
			c-2.93-0.73-5.98-1.35-9.16-1.81C103.04,42.1,78.27,47.86,57.36,58.9L57.36,58.9z"
                  fill="#282828"
                  stroke-width="0"
                ></path>
              </g>
              <g>
                <path
                  d="M37.69,129.1C22.51,112.72,11.33,92.03,6.3,70.11c-1.11-4.53-1.89-10.17-2.42-14.82
			c-0.13-2-0.37-7.15-0.47-9.2c0.49-9.14,8.06-15.7,15.43-15.34c8.18,0.4,15.56,9.32,13.44,19.38c-0.96,2.87-1.82,5.86-2.53,8.99
			C24.55,82.23,28.34,107.38,37.69,129.1L37.69,129.1z"
                  fill="#282828"
                  stroke-width="0"
                ></path>
              </g>
            </g>
            <rect
              x="-1710.43"
              y="-271.13"
              width="10788.29"
              height="2078.95"
              fill="none"
              stroke-width="0"
            ></rect>
          </svg>
        </g>
      </g>
    </g>
  </svg>