<svg width="119" height="99" viewBox="0 0 119 99" fill="none" xmlns="http://www.w3.org/2000/svg">
<path d="M84.6 64.14C85.0915 64.14 85.49 63.7415 85.49 63.25C85.49 62.7585 85.0915 62.36 84.6 62.36C84.1084 62.36 83.71 62.7585 83.71 63.25C83.71 63.7415 84.1084 64.14 84.6 64.14Z" fill="#CFCFCF"/>
<path d="M103.02 19.24V23.16" stroke="#BABABA" stroke-linecap="round" stroke-linejoin="round"/>
<path d="M101.07 21.2H104.98" stroke="#BABABA" stroke-linecap="round" stroke-linejoin="round"/>
<path d="M74.4927 38.0035L35.4255 34.5444C34.5123 34.4635 33.7064 35.1383 33.6256 36.0515L33.3848 38.7708C33.3039 39.6841 33.9787 40.4899 34.8919 40.5708L73.9591 44.0299C74.8723 44.1108 75.6781 43.436 75.759 42.5228L75.9998 39.8035C76.0806 38.8902 75.4059 38.0844 74.4927 38.0035Z" fill="white" stroke="#BABABA" stroke-linecap="round" stroke-linejoin="round"/>
<path d="M73.4504 49.746L34.3833 46.2869C33.47 46.206 32.6642 46.8807 32.5833 47.794L32.3425 50.5133C32.2617 51.4266 32.9364 52.2324 33.8497 52.3133L72.9168 55.7724C73.83 55.8533 74.6359 55.1785 74.7168 54.2653L74.9575 51.5459C75.0384 50.6327 74.3636 49.8269 73.4504 49.746Z" fill="white" stroke="#BABABA" stroke-linecap="round" stroke-linejoin="round"/>
<path d="M59.5011 60.5547L46.2231 59.379C45.5244 59.3171 44.9079 59.8334 44.846 60.532L44.5364 64.0283C44.4746 64.727 44.9908 65.3435 45.6895 65.4054L58.9675 66.5811C59.6662 66.643 60.2827 66.1267 60.3446 65.4281L60.6541 61.9317C60.716 61.2331 60.1998 60.6165 59.5011 60.5547Z" fill="#D2D2D2"/>
<path d="M62.9999 24.4C61.9147 25.6671 60.568 26.6843 59.0525 27.3818C57.5369 28.0792 55.8883 28.4403 54.2199 28.4403C52.5516 28.4403 50.903 28.0792 49.3874 27.3818C47.8718 26.6843 46.5252 25.6671 45.4399 24.4C45.5903 22.1738 46.5807 20.0878 48.2107 18.5642C49.8407 17.0405 51.9887 16.1929 54.2199 16.1929C56.4512 16.1929 58.5992 17.0405 60.2292 18.5642C61.8592 20.0878 62.8496 22.1738 62.9999 24.4Z" fill="#D2D2D2"/>
<path d="M54.1799 14.44C56.2786 14.44 57.9799 12.7387 57.9799 10.64C57.9799 8.54134 56.2786 6.84003 54.1799 6.84003C52.0812 6.84003 50.3799 8.54134 50.3799 10.64C50.3799 12.7387 52.0812 14.44 54.1799 14.44Z" fill="#D2D2D2"/>
<path d="M44.25 40.09C45.2 40.09 45.97 39.32 45.97 38.37C45.97 37.4201 45.2 36.65 44.25 36.65C43.3001 36.65 42.53 37.4201 42.53 38.37C42.53 39.32 43.3001 40.09 44.25 40.09Z" fill="#D2D2D2"/>
<path d="M51.21 40.7C52.1599 40.7 52.93 39.9299 52.93 38.98C52.93 38.0301 52.1599 37.26 51.21 37.26C50.2601 37.26 49.49 38.0301 49.49 38.98C49.49 39.9299 50.2601 40.7 51.21 40.7Z" fill="#D2D2D2"/>
<path d="M58.17 41.32C59.1199 41.32 59.89 40.5499 59.89 39.6C59.89 38.6501 59.1199 37.88 58.17 37.88C57.22 37.88 56.45 38.6501 56.45 39.6C56.45 40.5499 57.22 41.32 58.17 41.32Z" fill="#D2D2D2"/>
<path d="M65.1299 41.93C66.0798 41.93 66.8499 41.1599 66.8499 40.21C66.8499 39.2601 66.0798 38.49 65.1299 38.49C64.18 38.49 63.4099 39.2601 63.4099 40.21C63.4099 41.1599 64.18 41.93 65.1299 41.93Z" fill="#D2D2D2"/>
<path d="M73.6007 2.59C74.0922 2.59 74.4907 2.19153 74.4907 1.7C74.4907 1.20846 74.0922 0.809998 73.6007 0.809998C73.1092 0.809998 72.7107 1.20846 72.7107 1.7C72.7107 2.19153 73.1092 2.59 73.6007 2.59Z" fill="#CFCFCF"/>
<path d="M72.8 52.2721C65.18 52.2721 57.44 51.9621 50.2 49.9521C42.96 47.9421 36.6 44.1521 30.74 39.7221C26.93 36.8321 23.45 34.5421 18.52 34.8921C13.6848 35.1495 9.06045 36.955 5.33005 40.0421C-0.999955 45.5521 4.36306e-05 55.7421 2.50004 62.9021C6.28004 73.7021 17.79 81.1921 27.57 86.0821C38.87 91.7221 51.28 95.0021 63.73 96.8921C74.73 98.5521 88.66 99.7521 98.11 92.6221C106.8 86.0821 109.18 71.1321 107.05 61.0421C106.535 58.06 104.949 55.3684 102.59 53.4721C96.49 49.0121 87.39 51.9921 80.53 52.1421C78 52.2021 75.4 52.2621 72.8 52.2721Z" fill="#F2F2F2"/>
<path d="M114.298 41.2952L45.2083 35.1777C43.2059 35.0004 41.4388 36.48 41.2615 38.4825L36.96 87.0624C36.7827 89.0649 38.2623 90.832 40.2648 91.0093L109.354 97.1268C111.357 97.3041 113.124 95.8245 113.301 93.822L117.603 45.2421C117.78 43.2396 116.301 41.4725 114.298 41.2952Z" fill="white" stroke="#BABABA" stroke-linecap="round" stroke-linejoin="round"/>
<path d="M95.8707 46.4368C95.8707 48.7272 95.1915 50.966 93.9191 52.8703C92.6467 54.7747 90.8381 56.2589 88.7222 57.1354C86.6062 58.0118 84.2778 58.2412 82.0315 57.7943C79.7852 57.3475 77.7219 56.2446 76.1024 54.6251C74.4829 53.0056 73.38 50.9423 72.9332 48.696C72.4864 46.4497 72.7157 44.1213 73.5922 42.0054C74.4686 39.8894 75.9529 38.0809 77.8572 36.8084C79.7615 35.536 82.0004 34.8568 84.2907 34.8568C85.8136 34.8489 87.323 35.143 88.7316 35.7221C90.1401 36.3013 91.4198 37.1539 92.4967 38.2308C93.5736 39.3077 94.4263 40.5874 95.0054 41.996C95.5846 43.4045 95.8787 44.9139 95.8707 46.4368Z" fill="white" stroke="#BABABA" stroke-linecap="round" stroke-linejoin="round"/>
<path d="M70.0092 73.0633C88.4389 73.0633 103.379 72.1321 103.379 70.9833C103.379 69.8346 88.4389 68.9033 70.0092 68.9033C51.5794 68.9033 36.6392 69.8346 36.6392 70.9833C36.6392 72.1321 51.5794 73.0633 70.0092 73.0633Z" fill="#F2F2F2"/>
</svg>
