<svg width="25" height="24" viewBox="0 0 25 24" fill="none" xmlns="http://www.w3.org/2000/svg">
<path fill-rule="evenodd" clip-rule="evenodd" d="M18.4105 11.8002C18.4105 12.2142 18.0745 12.5502 17.6605 12.5502C17.2465 12.5502 16.9105 12.2142 16.9105 11.8002C16.9105 11.3862 17.2465 11.0502 17.6605 11.0502C18.0745 11.0502 18.4105 11.3862 18.4105 11.8002ZM15.7075 11.8602C15.7075 12.8592 16.5215 13.6722 17.5205 13.6722H21.9805C22.0225 13.1442 22.0505 12.5952 22.0505 12.0002C22.0505 11.2982 22.0155 10.6552 21.9565 10.0462H17.5205C16.5215 10.0462 15.7075 10.8602 15.7075 11.8602Z" fill="black"/>
<path fill-rule="evenodd" clip-rule="evenodd" d="M11.9017 8.64112H7.84171C7.42771 8.64112 7.09171 8.30512 7.09171 7.89112C7.09171 7.47712 7.42771 7.14112 7.84171 7.14112H11.9017C12.3157 7.14112 12.6517 7.47712 12.6517 7.89112C12.6517 8.30512 12.3157 8.64112 11.9017 8.64112ZM17.5207 15.1721C15.6937 15.1721 14.2077 13.6861 14.2077 11.8601C14.2077 10.0331 15.6937 8.54612 17.5207 8.54612H21.7307C20.8527 4.49212 18.0597 2.96112 12.2507 2.96112C5.01471 2.96112 2.44971 5.32712 2.44971 12.0001C2.44971 18.6741 5.01471 21.0391 12.2507 21.0391C18.1927 21.0391 20.9807 19.4391 21.7887 15.1721H17.5207Z" fill="black"/>
</svg>
