<svg width="25" height="24" viewBox="0 0 25 24" fill="none" xmlns="http://www.w3.org/2000/svg">
<path fill-rule="evenodd" clip-rule="evenodd" d="M16.2006 13.4161C15.6486 13.4161 15.1956 12.9691 15.1956 12.4161C15.1956 11.8631 15.6386 11.4161 16.1916 11.4161H16.2006C16.7526 11.4161 17.2006 11.8631 17.2006 12.4161C17.2006 12.9691 16.7526 13.4161 16.2006 13.4161ZM12.1916 13.4161C11.6386 13.4161 11.1866 12.9691 11.1866 12.4161C11.1866 11.8631 11.6306 11.4161 12.1826 11.4161H12.1916C12.7436 11.4161 13.1916 11.8631 13.1916 12.4161C13.1916 12.9691 12.7436 13.4161 12.1916 13.4161ZM8.18264 13.4161C7.63064 13.4161 7.17864 12.9691 7.17864 12.4161C7.17864 11.8631 7.62064 11.4161 8.17364 11.4161H8.18264C8.73464 11.4161 9.18264 11.8631 9.18264 12.4161C9.18264 12.9691 8.73464 13.4161 8.18264 13.4161ZM19.6766 4.57611C17.6956 2.59511 15.0586 1.50311 12.2526 1.50311C9.44664 1.50311 6.80964 2.59511 4.82864 4.57611C1.72664 7.67911 0.880636 12.4411 2.70564 16.3751C2.73864 16.5371 2.64964 17.1961 2.58564 17.6781C2.34364 19.4841 2.21964 20.8101 2.83264 21.4241C3.44464 22.0371 4.76964 21.9131 6.57564 21.6701C7.05764 21.6061 7.72464 21.5201 7.82864 21.5311C9.23464 22.1821 10.7376 22.4971 12.2296 22.4971C14.9676 22.4971 17.6696 21.4351 19.6766 19.4271C23.7696 15.3321 23.7706 8.67011 19.6766 4.57611Z" fill="black"/>
</svg>
