<svg width="25" height="24" viewBox="0 0 25 24" fill="none" xmlns="http://www.w3.org/2000/svg">
<path d="M21.245 6.64697C21.245 8.65831 19.6145 10.2888 17.6032 10.2888C15.5918 10.2888 13.9613 8.65831 13.9613 6.64697C13.9613 4.63564 15.5918 3.00513 17.6032 3.00513C19.6145 3.00513 21.245 4.63564 21.245 6.64697Z" fill="black"/>
<path d="M10.5388 6.64697C10.5388 8.65831 8.90831 10.2888 6.89697 10.2888C4.88564 10.2888 3.25513 8.65831 3.25513 6.64697C3.25513 4.63564 4.88564 3.00513 6.89697 3.00513C8.90831 3.00513 10.5388 4.63564 10.5388 6.64697Z" fill="black"/>
<path d="M21.245 17.3532C21.245 19.3645 19.6145 20.9951 17.6032 20.9951C15.5918 20.9951 13.9613 19.3645 13.9613 17.3532C13.9613 15.3419 15.5918 13.7114 17.6032 13.7114C19.6145 13.7114 21.245 15.3419 21.245 17.3532Z" fill="black"/>
<path d="M10.5388 17.3532C10.5388 19.3645 8.90831 20.9951 6.89697 20.9951C4.88564 20.9951 3.25513 19.3645 3.25513 17.3532C3.25513 15.3419 4.88564 13.7114 6.89697 13.7114C8.90831 13.7114 10.5388 15.3419 10.5388 17.3532Z" fill="black"/>
</svg>
