<svg width="25" height="25" viewBox="0 0 25 25" fill="none" xmlns="http://www.w3.org/2000/svg">
<path fill-rule="evenodd" clip-rule="evenodd" d="M17.2036 4.26316V2.66016C17.2036 2.24616 16.8676 1.91016 16.4536 1.91016C16.0396 1.91016 15.7036 2.24616 15.7036 2.66016V5.92316C15.7036 6.18316 15.8446 6.40216 16.0466 6.53616C15.9276 6.61616 15.7926 6.67316 15.6386 6.67316C15.2246 6.67316 14.8886 6.33716 14.8886 5.92316V3.75716C14.0866 3.66116 13.2126 3.61216 12.2496 3.61216C11.1156 3.61216 10.1046 3.68016 9.19559 3.81716V2.66016C9.19559 2.24616 8.85959 1.91016 8.44559 1.91016C8.03159 1.91016 7.69559 2.24616 7.69559 2.66016V5.92316C7.69559 6.18316 7.83659 6.40216 8.03859 6.53616C7.91959 6.61616 7.78459 6.67316 7.63059 6.67316C7.21659 6.67316 6.88059 6.33716 6.88059 5.92316V4.39316C4.74659 5.21616 3.49459 6.74716 2.90259 9.18516H21.5976C20.9696 6.59916 19.5816 5.04716 17.2036 4.26316Z" fill="black"/>
<path fill-rule="evenodd" clip-rule="evenodd" d="M16.6626 14.6215C16.2486 14.6215 15.9086 14.2855 15.9086 13.8715C15.9086 13.4575 16.2396 13.1215 16.6536 13.1215H16.6626C17.0766 13.1215 17.4126 13.4575 17.4126 13.8715C17.4126 14.2855 17.0766 14.6215 16.6626 14.6215ZM16.6626 18.4745C16.2486 18.4745 15.9086 18.1385 15.9086 17.7245C15.9086 17.3095 16.2396 16.9745 16.6536 16.9745H16.6626C17.0766 16.9745 17.4126 17.3095 17.4126 17.7245C17.4126 18.1385 17.0766 18.4745 16.6626 18.4745ZM12.2636 14.6215C11.8496 14.6215 11.5086 14.2855 11.5086 13.8715C11.5086 13.4575 11.8406 13.1215 12.2546 13.1215H12.2636C12.6776 13.1215 13.0136 13.4575 13.0136 13.8715C13.0136 14.2855 12.6776 14.6215 12.2636 14.6215ZM12.2636 18.4745C11.8496 18.4745 11.5086 18.1385 11.5086 17.7245C11.5086 17.3095 11.8406 16.9745 12.2546 16.9745H12.2636C12.6776 16.9745 13.0136 17.3095 13.0136 17.7245C13.0136 18.1385 12.6776 18.4745 12.2636 18.4745ZM7.85559 14.6215C7.44159 14.6215 7.10059 14.2855 7.10059 13.8715C7.10059 13.4575 7.43259 13.1215 7.84659 13.1215H7.85559C8.26959 13.1215 8.60559 13.4575 8.60559 13.8715C8.60559 14.2855 8.26959 14.6215 7.85559 14.6215ZM7.85559 18.4745C7.44159 18.4745 7.10059 18.1385 7.10059 17.7245C7.10059 17.3095 7.43259 16.9745 7.84659 16.9745H7.85559C8.26959 16.9745 8.60559 17.3095 8.60559 17.7245C8.60559 18.1385 8.26959 18.4745 7.85559 18.4745ZM21.8696 10.6845H2.63059C2.52859 11.5045 2.47559 12.3975 2.47559 13.3865C2.47559 20.6015 5.03359 23.1595 12.2496 23.1595C19.4666 23.1595 22.0246 20.6015 22.0246 13.3865C22.0246 12.3975 21.9716 11.5045 21.8696 10.6845Z" fill="black"/>
</svg>
