<svg width="24" height="24" viewBox="0 0 24 24" fill="none" xmlns="http://www.w3.org/2000/svg">
<path d="M8.92863 20.0622C7.18963 19.7652 5.99463 19.1122 5.99463 17.8222C5.99463 15.8602 8.74363 14.1522 12.0006 14.1522C15.2396 14.1522 18.0066 15.8442 18.0066 17.8052C18.0066 19.7662 15.2576 20.2742 12.0006 20.2742" stroke="black" stroke-width="1.5" stroke-linecap="round" stroke-linejoin="round"/>
<path d="M11.2679 3.72607C9.49189 4.06807 8.15089 5.63107 8.15089 7.50607C8.14489 9.62407 9.85489 11.3481 11.9739 11.3551H12.0009C14.1269 11.3551 15.8509 9.63207 15.8509 7.50607C15.8509 6.12207 15.1189 4.90807 14.0219 4.22907" stroke="black" stroke-width="1.5" stroke-linecap="round" stroke-linejoin="round"/>
<path d="M18.3891 10.2984C19.6261 9.9674 20.5381 8.8394 20.5381 7.4964C20.5381 6.0954 19.5451 4.9254 18.2231 4.6554" stroke="black" stroke-width="1.5" stroke-linecap="round" stroke-linejoin="round"/>
<path d="M18.9702 13.4514C20.7242 13.4514 22.2222 14.6404 22.2222 15.7024C22.2222 16.3274 21.7052 17.0084 20.9212 17.1924" stroke="black" stroke-width="1.5" stroke-linecap="round" stroke-linejoin="round"/>
<path d="M5.61143 10.2984C4.37343 9.9674 3.46143 8.8394 3.46143 7.4964C3.46143 6.0954 4.45543 4.9254 5.77643 4.6554" stroke="black" stroke-width="1.5" stroke-linecap="round" stroke-linejoin="round"/>
<path d="M5.02983 13.4514C3.27583 13.4514 1.77783 14.6404 1.77783 15.7024C1.77783 16.3274 2.29483 17.0084 3.07983 17.1924" stroke="black" stroke-width="1.5" stroke-linecap="round" stroke-linejoin="round"/>
</svg>
