<svg width="24" height="24" viewBox="0 0 24 24" fill="none" xmlns="http://www.w3.org/2000/svg">
<path d="M8.1615 3.78713C8.4525 3.70613 8.1585 3.78613 8.4805 3.72613C9.4925 3.53813 10.6605 3.45213 11.9995 3.45213C12.6445 3.45213 13.2495 3.47213 13.8165 3.51313" stroke="black" stroke-width="1.5" stroke-linecap="round" stroke-linejoin="round"/>
<path d="M11.9995 21.9999C5.04446 21.9999 2.72546 19.6819 2.72546 12.7259C2.72546 8.59893 3.54146 6.10393 5.65846 4.75793" stroke="black" stroke-width="1.5" stroke-linecap="round" stroke-linejoin="round"/>
<path d="M16.0206 3.83118C19.8826 4.73118 21.2746 7.33618 21.2746 12.7262C21.2746 18.5822 19.6306 21.1512 14.9596 21.8172" stroke="black" stroke-width="1.5" stroke-linecap="round" stroke-linejoin="round"/>
<path d="M3.00037 9.27429H21.0084" stroke="black" stroke-width="1.5" stroke-linecap="round" stroke-linejoin="round"/>
<path d="M16.4033 13.2113H16.4123" stroke="black" stroke-width="1.5" stroke-linecap="round" stroke-linejoin="round"/>
<path d="M12.0044 13.2113H12.0134" stroke="black" stroke-width="1.5" stroke-linecap="round" stroke-linejoin="round"/>
<path d="M7.59645 13.2113H7.60545" stroke="black" stroke-width="1.5" stroke-linecap="round" stroke-linejoin="round"/>
<path d="M16.4033 17.0634H16.4123" stroke="black" stroke-width="1.5" stroke-linecap="round" stroke-linejoin="round"/>
<path d="M12.0044 17.0634H12.0134" stroke="black" stroke-width="1.5" stroke-linecap="round" stroke-linejoin="round"/>
<path d="M7.59645 17.0634H7.60545" stroke="black" stroke-width="1.5" stroke-linecap="round" stroke-linejoin="round"/>
<path d="M16.0084 2.00037V5.26237" stroke="black" stroke-width="1.5" stroke-linecap="round" stroke-linejoin="round"/>
<path d="M8.00037 2.00037V5.26237" stroke="black" stroke-width="1.5" stroke-linecap="round" stroke-linejoin="round"/>
</svg>
