<svg width="25" height="24" viewBox="0 0 25 24" fill="none" xmlns="http://www.w3.org/2000/svg">
<path fill-rule="evenodd" clip-rule="evenodd" d="M15.868 9.22812L14.451 13.7561C14.385 13.9681 14.219 14.1341 14.008 14.2001L9.478 15.6181C9.411 15.6391 9.344 15.6491 9.276 15.6491C9.1 15.6491 8.927 15.5801 8.798 15.4511C8.621 15.2741 8.556 15.0121 8.631 14.7721L10.049 10.2421C10.115 10.0301 10.281 9.86512 10.492 9.79912L15.022 8.38212C15.262 8.30512 15.524 8.37112 15.701 8.54912C15.879 8.72712 15.943 8.98912 15.868 9.22812ZM12.25 2.25012C5.051 2.25012 2.5 4.80212 2.5 12.0001C2.5 19.1981 5.051 21.7501 12.25 21.7501C19.449 21.7501 22 19.1981 22 12.0001C22 4.80212 19.449 2.25012 12.25 2.25012Z" fill="black"/>
</svg>
